<svg width="46" height="46" viewBox="0 0 46 46" fill="none" xmlns="http://www.w3.org/2000/svg">
<g filter="url(#filter0_d_13253_1317)">
<circle cx="23.0003" cy="20.0001" r="18" transform="rotate(179.742 23.0003 20.0001)" fill="url(#paint0_linear_13253_1317)"/>
</g>
<g filter="url(#filter1_di_13253_1317)">
<path fill-rule="evenodd" clip-rule="evenodd" d="M22.4843 26.7011C23.4545 27.6835 25.0374 27.6934 26.0198 26.7232C27.0022 25.753 27.0121 24.1701 26.0419 23.1877L22.7466 19.8509L26.0835 16.5555C27.0659 15.5853 27.0758 14.0024 26.1056 13.02C25.1354 12.0376 23.5525 12.0277 22.5701 12.9979L17.5316 17.9739C17.5049 17.998 17.4787 18.0229 17.4528 18.0484C16.9315 18.5632 16.684 19.2507 16.7116 19.9293C16.7352 20.5305 16.9747 21.1251 17.4308 21.587C17.4552 21.6116 17.4799 21.6357 17.5051 21.6592L22.4843 26.7011Z" fill="white"/>
</g>
<defs>
<filter id="filter0_d_13253_1317" x="0" y="0" width="46" height="46" filterUnits="userSpaceOnUse" color-interpolation-filters="sRGB">
<feFlood flood-opacity="0" result="BackgroundImageFix"/>
<feColorMatrix in="SourceAlpha" type="matrix" values="0 0 0 0 0 0 0 0 0 0 0 0 0 0 0 0 0 0 127 0" result="hardAlpha"/>
<feOffset dy="3"/>
<feGaussianBlur stdDeviation="2.5"/>
<feComposite in2="hardAlpha" operator="out"/>
<feColorMatrix type="matrix" values="0 0 0 0 0 0 0 0 0 0 0 0 0 0 0 0 0 0 0.2 0"/>
<feBlend mode="normal" in2="BackgroundImageFix" result="effect1_dropShadow_13253_1317"/>
<feBlend mode="normal" in="SourceGraphic" in2="effect1_dropShadow_13253_1317" result="shape"/>
</filter>
<filter id="filter1_di_13253_1317" x="14.71" y="9.27661" width="14.1172" height="22.1677" filterUnits="userSpaceOnUse" color-interpolation-filters="sRGB">
<feFlood flood-opacity="0" result="BackgroundImageFix"/>
<feColorMatrix in="SourceAlpha" type="matrix" values="0 0 0 0 0 0 0 0 0 0 0 0 0 0 0 0 0 0 127 0" result="hardAlpha"/>
<feOffset dy="2"/>
<feGaussianBlur stdDeviation="1"/>
<feComposite in2="hardAlpha" operator="out"/>
<feColorMatrix type="matrix" values="0 0 0 0 0 0 0 0 0 0 0 0 0 0 0 0 0 0 0.15 0"/>
<feBlend mode="normal" in2="BackgroundImageFix" result="effect1_dropShadow_13253_1317"/>
<feBlend mode="normal" in="SourceGraphic" in2="effect1_dropShadow_13253_1317" result="shape"/>
<feColorMatrix in="SourceAlpha" type="matrix" values="0 0 0 0 0 0 0 0 0 0 0 0 0 0 0 0 0 0 127 0" result="hardAlpha"/>
<feOffset dy="-3"/>
<feGaussianBlur stdDeviation="1.5"/>
<feComposite in2="hardAlpha" operator="arithmetic" k2="-1" k3="1"/>
<feColorMatrix type="matrix" values="0 0 0 0 0 0 0 0 0 0 0 0 0 0 0 0 0 0 0.25 0"/>
<feBlend mode="normal" in2="shape" result="effect2_innerShadow_13253_1317"/>
</filter>
<linearGradient id="paint0_linear_13253_1317" x1="24.2629" y1="38.0001" x2="22.0091" y2="3.62028" gradientUnits="userSpaceOnUse">
<stop stop-color="#FC142A"/>
<stop offset="1" stop-color="#F34F6C"/>
</linearGradient>
</defs>
</svg>
