<svg width="46" height="46" viewBox="0 0 46 46" fill="none" xmlns="http://www.w3.org/2000/svg">
<g filter="url(#filter0_d_13253_1299)">
<circle cx="23" cy="20" r="18" transform="rotate(-90 23 20)" fill="url(#paint0_linear_13253_1299)"/>
</g>
<g filter="url(#filter1_di_13253_1299)">
<path fill-rule="evenodd" clip-rule="evenodd" d="M16.3011 19.454C15.3144 20.4197 15.2974 22.0025 16.2631 22.9893C17.2289 23.976 18.8117 23.9931 19.7985 23.0273L23.15 19.747L26.4304 23.0988C27.3962 24.0855 28.979 24.1025 29.9658 23.1368C30.9525 22.171 30.9695 20.5882 30.0038 19.6014L25.0505 14.5405C25.0265 14.5138 25.0018 14.4874 24.9764 14.4614C24.4639 13.9378 23.7776 13.6872 23.0988 13.7117C22.4975 13.7327 21.9018 13.9695 21.4379 14.4235C21.4131 14.4478 21.389 14.4724 21.3654 14.4974L16.3011 19.454Z" fill="white"/>
</g>
<defs>
<filter id="filter0_d_13253_1299" x="0" y="0" width="46" height="46" filterUnits="userSpaceOnUse" color-interpolation-filters="sRGB">
<feFlood flood-opacity="0" result="BackgroundImageFix"/>
<feColorMatrix in="SourceAlpha" type="matrix" values="0 0 0 0 0 0 0 0 0 0 0 0 0 0 0 0 0 0 127 0" result="hardAlpha"/>
<feOffset dy="3"/>
<feGaussianBlur stdDeviation="2.5"/>
<feComposite in2="hardAlpha" operator="out"/>
<feColorMatrix type="matrix" values="0 0 0 0 0 0 0 0 0 0 0 0 0 0 0 0 0 0 0.2 0"/>
<feBlend mode="normal" in2="BackgroundImageFix" result="effect1_dropShadow_13253_1299"/>
<feBlend mode="normal" in="SourceGraphic" in2="effect1_dropShadow_13253_1299" result="shape"/>
</filter>
<filter id="filter1_di_13253_1299" x="13.5498" y="10.7102" width="19.167" height="17.1399" filterUnits="userSpaceOnUse" color-interpolation-filters="sRGB">
<feFlood flood-opacity="0" result="BackgroundImageFix"/>
<feColorMatrix in="SourceAlpha" type="matrix" values="0 0 0 0 0 0 0 0 0 0 0 0 0 0 0 0 0 0 127 0" result="hardAlpha"/>
<feOffset dy="2"/>
<feGaussianBlur stdDeviation="1"/>
<feComposite in2="hardAlpha" operator="out"/>
<feColorMatrix type="matrix" values="0 0 0 0 0 0 0 0 0 0 0 0 0 0 0 0 0 0 0.15 0"/>
<feBlend mode="normal" in2="BackgroundImageFix" result="effect1_dropShadow_13253_1299"/>
<feBlend mode="normal" in="SourceGraphic" in2="effect1_dropShadow_13253_1299" result="shape"/>
<feColorMatrix in="SourceAlpha" type="matrix" values="0 0 0 0 0 0 0 0 0 0 0 0 0 0 0 0 0 0 127 0" result="hardAlpha"/>
<feOffset dy="-3"/>
<feGaussianBlur stdDeviation="1.5"/>
<feComposite in2="hardAlpha" operator="arithmetic" k2="-1" k3="1"/>
<feColorMatrix type="matrix" values="0 0 0 0 0 0 0 0 0 0 0 0 0 0 0 0 0 0 0.25 0"/>
<feBlend mode="normal" in2="shape" result="effect2_innerShadow_13253_1299"/>
</filter>
<linearGradient id="paint0_linear_13253_1299" x1="24.2627" y1="38" x2="22.0088" y2="3.62017" gradientUnits="userSpaceOnUse">
<stop stop-color="#FC142A"/>
<stop offset="1" stop-color="#F34F6C"/>
</linearGradient>
</defs>
</svg>
